<svg width="256" height="256" viewBox="0 0 256 256" fill="none" xmlns="http://www.w3.org/2000/svg">
<path d="M127.6 249.2C194.758 249.2 249.2 194.758 249.2 127.6C249.2 60.4422 194.758 6 127.6 6C60.4422 6 6 60.4422 6 127.6C6 194.758 60.4422 249.2 127.6 249.2Z" fill="#E0306A"/>
<path d="M139.536 184.222C120.384 184.222 101.232 184.176 82.0801 184.26C78.2661 184.277 76.5241 183.247 76.5301 178.788C76.5761 145.352 76.5041 111.916 76.4691 78.479C76.4691 78 76.4551 77.52 76.4811 77.043C76.6151 74.56 77.9071 73.235 80.3871 73.148C82.2201 73.084 84.0571 73.129 85.8931 73.128C88.9251 73.127 91.9641 73.255 94.9891 73.099C99.7861 72.851 100.72 74.848 100.669 78.655C100.548 87.671 100.63 96.689 100.63 105.707C100.63 107.622 100.603 109.538 100.642 111.452C100.708 114.676 101.816 115.777 104.968 115.82C105.606 115.829 106.246 115.844 106.883 115.809C109.152 115.685 110.382 114.491 110.441 112.176C110.512 109.385 110.465 106.59 110.466 103.797C110.467 95.578 110.466 87.358 110.467 79.139C110.467 78.501 110.454 77.862 110.476 77.224C110.575 74.484 111.874 73.193 114.675 73.139C116.988 73.094 119.303 73.127 121.617 73.127C124.49 73.127 127.363 73.104 130.235 73.136C133.317 73.17 134.579 74.407 134.587 77.521C134.615 88.374 134.598 99.227 134.605 110.079C134.606 110.956 134.57 111.844 134.695 112.707C134.965 114.583 136.169 115.669 138.082 115.794C139.115 115.861 140.159 115.863 141.192 115.796C143.211 115.667 144.401 114.519 144.627 112.499C144.715 111.709 144.688 110.905 144.689 110.108C144.692 99.734 144.691 89.36 144.692 78.986C144.692 78.348 144.681 77.709 144.698 77.071C144.778 74.072 146.09 72.733 149.145 72.707C154.172 72.664 159.2 72.66 164.227 72.709C167.255 72.739 168.572 74.089 168.579 77.146C168.604 88.079 168.588 99.011 168.593 109.944C168.593 110.821 168.555 111.708 168.668 112.573C168.934 114.607 170.122 115.692 172.17 115.801C173.204 115.856 174.248 115.863 175.281 115.793C177.177 115.664 178.364 114.557 178.619 112.662C178.735 111.798 178.702 110.91 178.702 110.033C178.707 99.819 178.705 89.604 178.706 79.39C178.706 78.672 178.692 77.953 178.716 77.236C178.81 74.416 180.021 73.165 182.856 73.143C188.122 73.102 193.39 73.099 198.656 73.145C201.436 73.169 202.719 74.494 202.84 77.264C202.861 77.742 202.848 78.221 202.848 78.7C202.817 111.897 202.785 145.094 202.751 178.291C202.75 179.089 202.784 179.893 202.7 180.683C202.473 182.822 201.277 183.999 199.148 184.189C198.356 184.26 197.553 184.22 196.755 184.22C177.68 184.222 158.608 184.222 139.536 184.222Z" fill="#FEFEFE"/>
<path d="M68.5261 145.065C68.5261 156.147 68.5271 167.229 68.5231 178.311C68.5231 179.187 68.5461 180.071 68.4481 180.939C68.2181 182.97 67.1191 184.073 65.0811 184.374C64.5321 184.455 63.9651 184.41 63.4121 184.471C60.4461 184.796 58.6261 183.671 57.2531 180.838C53.4981 173.095 49.4161 165.509 45.4181 157.884C44.6961 156.506 44.2761 155.128 44.2841 153.56C44.3121 147.9 44.2981 142.239 44.2511 136.578C44.2381 135.019 44.5861 133.608 45.3051 132.226C49.4961 124.163 53.6851 116.099 57.7921 107.994C58.6631 106.275 59.8451 105.454 61.7421 105.551C62.8551 105.608 63.9811 105.507 65.0861 105.619C67.1811 105.831 68.3841 107.087 68.5901 109.19C68.6601 109.901 68.6271 110.624 68.6271 111.341C68.6291 122.583 68.6281 133.824 68.6281 145.066C68.5941 145.065 68.5601 145.065 68.5261 145.065Z" fill="#FEFEFE"/>
</svg>
