<svg width="256" height="256" viewBox="0 0 256 256" fill="none" xmlns="http://www.w3.org/2000/svg">
<path d="M127.6 249.2C194.758 249.2 249.2 194.758 249.2 127.6C249.2 60.4422 194.758 6 127.6 6C60.4422 6 6 60.4422 6 127.6C6 194.758 60.4422 249.2 127.6 249.2Z" fill="#919AA2"/>
<path fill-rule="evenodd" clip-rule="evenodd" d="M203.89 127.89C203.89 169.89 169.89 203.89 127.89 203.89C85.8899 203.89 51.8899 169.89 51.8899 127.89C51.8899 85.89 85.8899 51.89 127.89 51.89C169.89 51.89 203.89 85.89 203.89 127.89ZM175.816 127.55C175.816 154.053 154.319 175.55 127.816 175.55C101.313 175.55 79.9629 153.906 79.9629 127.55C79.9629 101.194 101.46 79.55 127.963 79.55C154.466 79.55 175.816 101.047 175.816 127.55Z" fill="white"/>
</svg>
